<svg width="26" height="26" viewBox="0 0 26 26" fill="none" xmlns="http://www.w3.org/2000/svg">
<path d="M13.0305 3.78828C14.8451 3.78828 16.4633 4.16745 17.8852 4.92578C19.3206 5.67059 20.4378 6.72684 21.2367 8.09453C22.0357 9.44871 22.4352 10.9992 22.4352 12.7461C22.4352 14.4659 22.1372 15.8133 21.5414 16.7883C20.9456 17.7497 20.1196 18.2305 19.0633 18.2305C18.3997 18.2305 17.8581 18.0341 17.4383 17.6414C17.0321 17.2487 16.8086 16.707 16.768 16.0164C16.3617 16.7206 15.8066 17.269 15.1024 17.6617C14.3982 18.0409 13.5992 18.2305 12.7055 18.2305C11.7576 18.2305 10.8977 18.007 10.1258 17.5601C9.36749 17.0997 8.76487 16.47 8.31799 15.6711C7.88468 14.8721 7.66799 13.9716 7.66799 12.9695C7.66799 11.9675 7.88468 11.0737 8.31799 10.2883C8.76487 9.48934 9.36749 8.8664 10.1258 8.41953C10.8977 7.97265 11.7576 7.74922 12.7055 7.74922C13.5722 7.74922 14.3508 7.93878 15.0414 8.31797C15.7456 8.68359 16.3076 9.20496 16.7274 9.88203V7.83047H18.0477V15.5289C18.0477 16.0706 18.1628 16.4633 18.393 16.707C18.6232 16.9508 18.9279 17.0727 19.3071 17.0727C19.9435 17.0727 20.4446 16.6935 20.8102 15.9352C21.1894 15.1768 21.3789 14.1206 21.3789 12.7664C21.3789 11.1956 21.0269 9.81434 20.3227 8.62265C19.6185 7.41746 18.63 6.48309 17.3571 5.81953C16.0977 5.15597 14.6555 4.82422 13.0305 4.82422C11.3919 4.82422 9.93624 5.16953 8.66331 5.86015C7.40393 6.53722 6.42218 7.49871 5.71799 8.74453C5.01382 9.97684 4.66174 11.3852 4.66174 12.9695C4.66174 14.5539 5.00706 15.969 5.69768 17.2148C6.40186 18.4607 7.37686 19.4289 8.62268 20.1195C9.88206 20.8101 11.3242 21.1555 12.9492 21.1555C13.5857 21.1555 14.2492 21.081 14.9399 20.932C15.6441 20.7831 16.2805 20.5596 16.8492 20.2617L17.1946 21.257C16.6122 21.555 15.9352 21.7851 15.1633 21.9476C14.405 22.1101 13.6669 22.1914 12.9492 22.1914C11.1076 22.1914 9.47581 21.7987 8.05393 21.0133C6.63206 20.2278 5.52162 19.1378 4.72268 17.743C3.93726 16.3346 3.54456 14.7435 3.54456 12.9695C3.54456 11.182 3.94404 9.59765 4.74299 8.2164C5.54193 6.8216 6.65912 5.73828 8.09456 4.96641C9.5435 4.18099 11.1888 3.78828 13.0305 3.78828ZM12.8883 17.0523C13.6196 17.0523 14.2763 16.8831 14.8586 16.5445C15.4409 16.206 15.9013 15.732 16.2399 15.1227C16.5784 14.4997 16.7477 13.782 16.7477 12.9695C16.7477 12.1706 16.5784 11.4664 16.2399 10.857C15.9013 10.2341 15.4409 9.76015 14.8586 9.43515C14.2763 9.0966 13.6196 8.92734 12.8883 8.92734C12.1435 8.92734 11.4732 9.0966 10.8774 9.43515C10.2951 9.77371 9.83468 10.2477 9.49612 10.857C9.17112 11.4664 9.00862 12.1706 9.00862 12.9695C9.00862 13.7685 9.17112 14.4794 9.49612 15.1023C9.83468 15.7117 10.2951 16.1925 10.8774 16.5445C11.4732 16.8831 12.1435 17.0523 12.8883 17.0523Z" fill="white"/>
</svg>
