<svg width="14" height="16" viewBox="0 0 14 16" fill="none" xmlns="http://www.w3.org/2000/svg">
<path fill-rule="evenodd" clip-rule="evenodd" d="M5.64028 8.06309L1.57503 12.1283C0.957776 12.7456 0.957776 13.7464 1.57503 14.3636C2.19229 14.9809 3.19307 14.9809 3.81032 14.3636L7.87557 10.2984C8.49283 9.68112 8.49283 8.68035 7.87557 8.06309C7.25831 7.44583 6.25754 7.44583 5.64028 8.06309ZM0.867928 11.4212C-0.139855 12.429 -0.139855 14.0629 0.867928 15.0707C1.87571 16.0785 3.50965 16.0785 4.51743 15.0707L8.58268 11.0055C9.59046 9.9977 9.59046 8.36376 8.58268 7.35598C7.5749 6.3482 5.94096 6.3482 4.93318 7.35598L0.867928 11.4212ZM9.75643 2.12218L5.6403 6.23832C5.02304 6.85558 5.02304 7.85635 5.6403 8.47361C6.25755 9.09087 7.25833 9.09087 7.87559 8.47361L11.9917 4.35747C12.609 3.74022 12.609 2.73944 11.9917 2.12218C11.3745 1.50493 10.3737 1.50493 9.75643 2.12218ZM4.93319 5.53121C3.92541 6.539 3.92541 8.17293 4.93319 9.18072C5.94097 10.1885 7.57491 10.1885 8.5827 9.18072L12.6988 5.06458C13.7066 4.0568 13.7066 2.42286 12.6988 1.41508C11.691 0.407295 10.0571 0.407296 9.04932 1.41508L4.93319 5.53121Z" fill="white"/>
</svg>
