<svg width="26" height="26" viewBox="0 0 26 26" fill="none" xmlns="http://www.w3.org/2000/svg">
<path fill-rule="evenodd" clip-rule="evenodd" d="M10.2092 18.7323C10.102 19.1823 10.3801 19.634 10.8301 19.7412C11.4536 19.8896 12.0793 19.5045 12.2277 18.881L12.2995 18.5795C14.5237 16.3704 15.3849 14.1216 15.5131 12.1024C15.6405 10.0967 15.0437 8.33421 14.3718 7.0793C14.3288 6.50555 13.8653 6.03961 13.2757 6.00856C12.8137 5.98425 12.4194 6.33908 12.3951 6.8011L12.2007 10.4946C12.1896 10.7054 12.3514 10.8852 12.5622 10.8963C13.0662 10.9229 13.5283 10.7154 13.8431 10.3694C14.2229 11.3398 14.2203 12.144 14.0215 12.8707C13.799 13.6842 13.3289 14.4112 12.827 15.1846L12.8263 15.1857C12.7347 15.3268 12.6422 15.4694 12.5505 15.6138C12.3361 15.2433 11.9756 14.9579 11.526 14.8509C11.3206 14.802 11.1146 14.9288 11.0657 15.1341L10.2092 18.7323ZM12.4326 15.8014C12.2524 15.4307 11.9136 15.1409 11.4814 15.038C11.3794 15.0137 11.2771 15.0767 11.2528 15.1787L10.3963 18.7768C10.3138 19.1235 10.5279 19.4715 10.8747 19.5541C11.3948 19.6779 11.9168 19.3566 12.0406 18.8365L12.1251 18.4815C16.569 14.1003 15.5183 9.60231 14.1822 7.13275C14.165 6.63652 13.7707 6.22722 13.2656 6.20065C12.9096 6.18191 12.6059 6.45527 12.5871 6.81121L12.3927 10.5047C12.3872 10.6094 12.4676 10.6988 12.5723 10.7043C13.0493 10.7294 13.4838 10.5167 13.7606 10.1698C13.8076 10.111 13.85 10.0482 13.8874 9.98214C13.9204 10.0542 13.9514 10.1254 13.9806 10.1958C14.8811 12.3731 13.9545 13.8008 12.9884 15.2893C12.8751 15.4638 12.7613 15.6392 12.6498 15.8167C12.6059 15.8865 12.5625 15.9567 12.5195 16.0272C12.4969 15.9494 12.4678 15.8739 12.4326 15.8014Z" fill="white"/>
<path d="M12.4325 15.8014C12.2524 15.4307 11.9136 15.1409 11.4813 15.038C11.3794 15.0137 11.277 15.0767 11.2527 15.1787L10.3962 18.7768C10.3137 19.1235 10.5279 19.4715 10.8746 19.5541C11.3947 19.6779 11.9167 19.3566 12.0405 18.8365L12.125 18.4815C16.569 14.1003 15.5182 9.6023 14.1821 7.13275C14.1649 6.63651 13.7707 6.22722 13.2655 6.20065C12.9096 6.1819 12.6058 6.45526 12.5871 6.8112L12.3927 10.5047C12.3871 10.6094 12.4676 10.6987 12.5722 10.7043C13.0492 10.7294 13.4837 10.5167 13.7605 10.1698C13.8075 10.111 13.85 10.0482 13.8873 9.98214C13.9203 10.0542 13.9514 10.1254 13.9805 10.1958C14.881 12.3731 13.9544 13.8008 12.9883 15.2893C12.875 15.4638 12.7612 15.6392 12.6497 15.8167C12.6059 15.8865 12.5624 15.9567 12.5195 16.0272C12.4969 15.9494 12.4677 15.8739 12.4325 15.8014Z" fill="white"/>
</svg>
