<svg width="26" height="46" viewBox="0 0 26 46" fill="none" xmlns="http://www.w3.org/2000/svg">
<path fill-rule="evenodd" clip-rule="evenodd" d="M23.7193 0.798246H2.2807C1.46193 0.798246 0.798246 1.46196 0.798246 2.2807V43.2193C0.798246 44.0381 1.46193 44.7018 2.2807 44.7018H23.7193C24.5381 44.7018 25.2018 44.0381 25.2018 43.2193V2.2807C25.2018 1.46196 24.5381 0.798246 23.7193 0.798246ZM2.2807 0C1.02107 0 0 1.0211 0 2.2807V43.2193C0 44.4789 1.02107 45.5 2.2807 45.5H23.7193C24.9789 45.5 26 44.4789 26 43.2193V2.2807C26 1.0211 24.9789 0 23.7193 0H2.2807Z" fill="white"/>
<path fill-rule="evenodd" clip-rule="evenodd" d="M13 40.7105C13.4409 40.7105 13.7982 40.3531 13.7982 39.9123C13.7982 39.4714 13.4409 39.114 13 39.114C12.5591 39.114 12.2018 39.4714 12.2018 39.9123C12.2018 40.3531 12.5591 40.7105 13 40.7105ZM13 41.5088C13.8817 41.5088 14.5965 40.794 14.5965 39.9123C14.5965 39.0306 13.8817 38.3158 13 38.3158C12.1183 38.3158 11.4035 39.0306 11.4035 39.9123C11.4035 40.794 12.1183 41.5088 13 41.5088Z" fill="white"/>
<path d="M10.1491 2.73684H15.7368V2.85088H10.1491V2.73684Z" fill="white"/>
</svg>
