<svg width="26" height="24" viewBox="0 0 26 24" fill="none" xmlns="http://www.w3.org/2000/svg">
<path d="M24.6007 5.33658C24.7677 4.76982 24.6007 4.35269 23.7972 4.35269H21.1385C20.4615 4.35269 20.15 4.71088 19.983 5.10988C19.983 5.10988 18.6288 8.42426 16.7149 10.5734C16.0965 11.1946 15.8121 11.3941 15.4736 11.3941C15.3066 11.3941 15.0493 11.1946 15.0493 10.6278V5.33658C15.0493 4.65647 14.8597 4.35269 14.3 4.35269H10.1201C9.69582 4.35269 9.44305 4.67007 9.44305 4.96479C9.44305 5.60862 10.4 5.75824 10.4993 7.57186V11.5074C10.4993 12.3689 10.3458 12.5276 10.0073 12.5276C9.1045 12.5276 6.91075 9.19958 5.61075 5.39099C5.34895 4.65194 5.09165 4.35269 4.41006 4.35269H1.75138C0.993041 4.35269 0.839569 4.71088 0.839569 5.10988C0.839569 5.81719 1.74235 9.33107 5.042 13.9739C7.24027 17.1432 10.3368 18.8616 13.1535 18.8616C14.8462 18.8616 15.0538 18.4808 15.0538 17.8233C15.0538 14.7946 14.9003 14.5089 15.749 14.5089C16.1417 14.5089 16.8187 14.7084 18.3986 16.2364C20.2042 18.05 20.5021 18.8616 21.5132 18.8616H24.1719C24.9302 18.8616 25.3139 18.4808 25.0927 17.7281C24.5872 16.1457 21.1701 12.8903 21.0167 12.6727C20.624 12.1648 20.7368 11.9381 21.0167 11.4847C21.0212 11.4802 24.2667 6.89175 24.6007 5.33658V5.33658Z" fill="white"/>
</svg>
